<svg xmlns="http://www.w3.org/2000/svg" version="1.1" xmlns:xlink="http://www.w3.org/1999/xlink" xmlns:svgjs="http://svgjs.com/svgjs" width="30" height="30"><svg width="30" height="30" xmlns="http://www.w3.org/2000/svg">

 <g>
  <title>background</title>
  <rect fill="none" id="SvgjsRect1019" height="32" width="32" y="-1" x="-1"></rect>
 </g>
 <g>
  <title>Layer 1</title>
  <path id="SvgjsPath1018" fill="#F4E041" d="m24.4688,23.780557c0.1381,0.9942 -0.2382,1.9437 -0.9196,2.5388c-0.1265,0.1118 -0.2636,0.2099 -0.4097,0.2942c-0.1324,0.0753 -0.2705,0.1402 -0.4166,0.1915c-0.3315,0.1174 -0.6768,0.1607 -1.0164,0.1391c-0.0092,0 -0.0184,0 -0.0276,-0.0023c-0.6836,-0.049 -1.342,-0.3591 -1.8081,-0.855c-0.7561,-0.8037 -0.7343,-1.8024 -0.7252,-2.011c0,-0.1004 0.0047,-0.1983 0.0162,-0.2953l-8.2178,0c0.0116,0.097 0.0162,0.1949 0.0162,0.2953c0.0092,0.2086 0.0311,1.2073 -0.7251,2.011c-0.4662,0.4959 -1.1245,0.806 -1.8081,0.855c-0.0093,0.0023 -0.0185,0.0023 -0.0277,0.0023c-0.3395,0.0216 -0.6848,-0.0217 -1.0162,-0.1391c-0.1462,-0.0513 -0.2844,-0.1162 -0.4167,-0.1915c-0.1462,-0.0843 -0.2831,-0.1824 -0.4098,-0.293c-0.0011,0 -0.0011,-0.0012 -0.0011,-0.0012c-0.6802,-0.5962 -1.05657,-1.5446 -0.91846,-2.5388l-2.96022,0c0.01956,-0.073 0.04028,-0.147 0.05984,-0.22c0.3683,-1.3555 0.73661,-2.7121 1.10491,-4.0677l0.2417,-0.0114l2.82783,-0.1253c0.1278,-0.0057 0.2256,-0.1118 0.2199,-0.2372c-0.0058,-0.1266 -0.1105,-0.2246 -0.2406,-0.2177l-2.68169,0.1185l-0.24053,0.0114c0.1335,-0.4947 0.26816,-0.9884 0.40167,-1.482l0.23364,0.0194l2.27081,0.188l0.0196,0c0.1185,0 0.2198,-0.09 0.229,-0.2086c0.0104,-0.1253 -0.0829,-0.236 -0.2095,-0.2463l-2.18791,-0.1812l-0.23364,-0.0194c0.13581,-0.5004 0.27163,-1.0009 0.40744,-1.5003l0.21637,0.0832l2.15454,0.8243c0.0265,0.0103 0.0553,0.016 0.0829,0.016c0.0921,0 0.1795,-0.0559 0.2141,-0.1459c0.046,-0.1175 -0.0127,-0.2497 -0.1313,-0.2953l-2.19939,-0.8426l-0.21638,-0.082c1.19357,-4.39372 2.38817,-8.78741 3.58177,-13.17999c0.8621,2.62665 1.7229,5.2533 2.5838,7.87881c0.6078,-0.30553 2.0246,-0.93141 3.8591,-0.90291l0.0162,0c1.8345,-0.0285 3.2514,0.59738 3.8591,0.90291c0.8609,-2.62551 1.7218,-5.25216 2.5839,-7.87881c1.1935,4.39258 2.3882,8.78627 3.5817,13.17999l-0.2163,0.082l-2.1995,0.8426c-0.1186,0.0456 -0.1784,0.1778 -0.1324,0.2953c0.0357,0.09 0.1232,0.1459 0.2153,0.1459c0.0276,0 0.0552,-0.0057 0.0828,-0.016l2.1546,-0.8243l0.2164,-0.0832c0.1357,0.4994 0.2716,0.9999 0.4074,1.5003l-0.2337,0.0194l-2.1879,0.1812c-0.1266,0.0103 -0.221,0.121 -0.2107,0.2463c0.0104,0.1186 0.1117,0.2086 0.2291,0.2086l0.0196,0l2.272,-0.188l0.2336,-0.0194c0.1336,0.4936 0.2681,0.9873 0.4017,1.482l-0.2406,-0.0114l-2.6828,-0.1185c-0.13,-0.0047 -0.2348,0.0911 -0.2405,0.2177c-0.0059,0.1254 0.0932,0.2315 0.2198,0.2372l2.829,0.1253l0.2417,0.0114c0.3683,1.3556 0.7366,2.7122 1.1049,4.0677c0.0196,0.073 0.0403,0.147 0.0598,0.22l-2.9602,0z"></path>
  <path id="SvgjsPath1017" fill-opacity="0.87" fill="black" d="m27.728,24.008557l-0.0599,-0.2189l-0.0622,-0.2292l-1.1026,-4.0574l-0.2394,-0.0102l-0.2416,-0.0114l1.106,4.071l-2.9246,0l0.0357,0.2589c0.1093,0.7831 -0.1255,1.5424 -0.5962,2.0896c-0.0898,0.1049 -0.1887,0.2018 -0.2947,0.2884c-0.0321,0.0274 -0.0656,0.0536 -0.0989,0.0776c-0.0691,0.0524 -0.1404,0.0992 -0.2153,0.1413c-0.1231,0.0719 -0.2531,0.1334 -0.3901,0.1813c-0.2279,0.0809 -0.465,0.1242 -0.7032,0.1311c-0.0784,0.0023 -0.1566,0 -0.2348,-0.0046c-0.076,-0.0045 -0.152,-0.0137 -0.2279,-0.0262c-0.5387,-0.0855 -1.0531,-0.3477 -1.4398,-0.7592c-0.6423,-0.683 -0.678,-1.5174 -0.663,-1.8549c0,-0.0991 0.0046,-0.187 0.0138,-0.2691l0.0299,-0.2542l-8.7345,0l0.0299,0.2542c0.0093,0.0821 0.015,0.17 0.015,0.2782c0.0138,0.3284 -0.0219,1.1628 -0.6642,1.8458c-0.3866,0.4115 -0.9011,0.6737 -1.4386,0.7592c-0.0759,0.0125 -0.1519,0.0217 -0.2279,0.0262c-0.0782,0.0046 -0.1564,0.0069 -0.2348,0.0046c-0.2393,-0.0069 -0.4764,-0.0502 -0.7043,-0.1311c-0.1358,-0.0479 -0.2659,-0.1083 -0.3879,-0.1801l-0.0012,0c-0.0748,-0.0423 -0.1473,-0.0901 -0.2163,-0.1425c-0.0334,-0.024 -0.0668,-0.0502 -0.099,-0.0776c-0.1059,-0.0866 -0.2049,-0.1835 -0.2947,-0.2884c-0.4707,-0.5472 -0.7055,-1.3065 -0.5961,-2.0896l0.0356,-0.2589l-2.92337,0l1.10606,-4.071l-0.2417,0.0114l-0.24055,0.0102l-1.1026,4.0574l-0.06215,0.2292l-0.05985,0.2189l3.00626,0c-0.07595,1.3395 0.7021,2.5799 1.9221,3.0108c1.0624,0.3762 2.3076,0.0639 3.0984,-0.7775c0.7607,-0.8095 0.8033,-1.7921 0.7872,-2.1661c0,-0.0228 -0.0011,-0.0456 -0.0011,-0.0672l7.7263,0l0,0.057c-0.0173,0.3842 0.0252,1.3668 0.7861,2.1763c0.5685,0.6042 1.3695,0.9348 2.1694,0.9348c0.3143,0 0.6285,-0.0513 0.9289,-0.1573c1.22,-0.4309 1.998,-1.6713 1.9221,-3.0108l3.0063,0zm-23.35853,-6.4596l-0.23364,-0.0193l-0.40973,1.5117l0.2417,-0.0103l0.24055,-0.0113l0.39476,-1.4514l-0.23364,-0.0194zm17.15493,-16.372l-0.2407,0.73077c-0.7181,2.19114 -1.4374,4.38231 -2.1556,6.57232l-0.3464,1.05681c-0.8759,-0.40813 -2.1743,-0.83793 -3.7211,-0.81057l-0.0126,0c-1.5515,-0.02507 -2.8498,0.40244 -3.7256,0.81057l-0.3465,-1.05681c-0.7182,-2.19001 -1.4364,-4.38118 -2.1557,-6.57233l-0.2405,-0.73076l-3.77632,13.8982l0.21639,0.0833l0.21637,0.082l3.38606,-12.46174c0.6388,1.94831 1.2776,3.89551 1.9152,5.84269l0.5122,1.55957l0.2394,-0.12085c0.824,-0.41497 2.1488,-0.90746 3.7555,-0.87782l0.0195,0c1.6114,-0.02736 2.9269,0.46285 3.751,0.87782l0.2405,0.12085l0.5111,-1.55957c0.6376,-1.94718 1.2763,-3.89438 1.9163,-5.84269l3.386,12.46174l0.2164,-0.082l0.2153,-0.0833l-3.7762,-13.8982zm-16.84187,14.3406l-0.4247,1.564l0.23364,0.0194l0.23364,0.0194l0.39018,-1.4364l-0.21638,-0.0832l-0.21638,-0.0832zm20.73887,0.001l-0.2152,0.0822l-0.2164,0.0832l0.3902,1.4364l0.2336,-0.0194l0.2326,-0.0182l-0.4248,-1.5642zm0.5467,2.0111l-0.2324,0.0193l-0.2338,0.0194l0.3949,1.4514l0.2405,0.0113l0.2405,0.0103l-0.4097,-1.5117z"></path>
  <path id="SvgjsPath1016" fill-opacity="0.87" fill="black" d="m16.8769,16.126257c-0.2705,0 -0.4891,-0.2167 -0.4891,-0.4846l0,-2.9367c0,-0.2679 0.2186,-0.4845 0.4891,-0.4845c0.2704,0 0.4891,0.2166 0.4891,0.4845l0,2.9367c0,0.2668 -0.2187,0.4846 -0.4891,0.4846z"></path>
  <path id="SvgjsPath1015" fill-opacity="0.87" fill="black" d="m13.5157,15.613457c-0.2682,0.0284 -0.5099,-0.1643 -0.5387,-0.431l-0.2383,-2.2162c-0.0287,-0.2657 0.1658,-0.5051 0.4351,-0.5336c0.2682,-0.0285 0.5099,0.1642 0.5387,0.431l0.2382,2.2162c0.0288,0.2667 -0.1657,0.505 -0.435,0.5336z"></path>
  <path id="SvgjsPath1014" fill-opacity="0.87" fill="black" d="m7.5648,16.378257c-0.0345,0.0901 -0.122,0.1459 -0.2141,0.1459c-0.0276,0 -0.0564,-0.0056 -0.0829,-0.0159l-2.15451,-0.8243l-0.21639,-0.0832l-0.21638,-0.0832l-3.13057,-1.1982c-0.1197,-0.0456 -0.17839,-0.1778 -0.13236,-0.2953c0.04604,-0.1174 0.17955,-0.1755 0.2981,-0.1299l3.08569,1.181l0.21638,0.0832l0.21637,0.0821l2.19947,0.8426c0.1185,0.0456 0.1772,0.1778 0.1312,0.2952z"></path>
  <path id="SvgjsPath1013" fill-opacity="0.87" fill="black" d="m7.1205,17.547757c-0.0092,0.1186 -0.1104,0.2087 -0.229,0.2087l-0.0196,0l-2.27078,-0.1881l-0.23364,-0.0194l-0.23364,-0.0194l-3.37111,-0.2793c-0.12661,-0.0103 -0.22099,-0.1208 -0.20947,-0.2463c0.01034,-0.1253 0.11969,-0.2189 0.24859,-0.2074l3.45399,0.285l0.23364,0.0193l0.23364,0.0194l2.18798,0.1813c0.1266,0.0102 0.2198,0.1209 0.2094,0.2462z"></path>
  <path id="SvgjsPath1012" fill-opacity="0.87" fill="black" d="m7.1291,19.119157c0.0058,0.1255 -0.0921,0.2314 -0.2198,0.2371l-2.82788,0.1254l-0.2417,0.0115l-0.24055,0.0102l-2.81407,0.1255l-0.01036,0c-0.122,0 -0.22442,-0.0959 -0.22903,-0.2178c-0.00575,-0.1266 0.09208,-0.2326 0.21867,-0.2383l2.96024,-0.1311l0.24169,-0.0102l0.24056,-0.0114l2.68173,-0.1186c0.13,-0.0069 0.2348,0.0912 0.2405,0.2177z"></path>
  <path id="SvgjsPath1011" fill-opacity="0.87" fill="black" d="m28.5516,14.319357l-3.1317,1.1993l-0.2153,0.0821l-0.2163,0.0832l-2.1546,0.8243c-0.0276,0.0103 -0.0553,0.0159 -0.0829,0.0159c-0.092,0 -0.1796,-0.0558 -0.2152,-0.1459c-0.046,-0.1174 0.0138,-0.2496 0.1323,-0.2952l2.1995,-0.8426l0.2165,-0.0821l0.2151,-0.0832l3.0868,-1.181c0.1174,-0.0456 0.2521,0.0125 0.2982,0.1299c0.0449,0.1175 -0.0138,0.2497 -0.1324,0.2953z"></path>
  <path id="SvgjsPath1010" fill-opacity="0.87" fill="black" d="m29.5469,17.004257c0.0103,0.1254 -0.0841,0.236 -0.2107,0.2462l-3.3711,0.2794l-0.2325,0.0194l-0.2337,0.0193l-2.2719,0.1881l-0.0196,0c-0.1174,0 -0.2186,-0.09 -0.229,-0.2086c-0.0104,-0.1254 0.0841,-0.236 0.2106,-0.2463l2.188,-0.1812l0.2336,-0.0194l0.2325,-0.0182l3.4551,-0.2862c0.1266,-0.0126 0.2383,0.082 0.2487,0.2075z"></path>
  <path id="SvgjsPath1009" fill-opacity="0.87" fill="black" d="m29.5552,19.410757c-0.0059,0.122 -0.1071,0.2178 -0.2303,0.2178l-0.0104,0l-2.814,-0.1254l-0.2394,-0.0103l-0.2416,-0.0114l-2.8291,-0.1253c-0.1266,-0.0058 -0.2256,-0.1118 -0.2199,-0.2372c0.0059,-0.1266 0.1105,-0.2224 0.2406,-0.2177l2.6829,0.1185l0.2405,0.0114l0.2405,0.0103l2.9603,0.131c0.1277,0.0057 0.2256,0.1118 0.2199,0.2383z"></path>
  <path id="SvgjsPath1008" fill="white" d="m21.6109,24.756557c0.0878,0.2508 0.164,0.5564 0.1884,0.9064c0.0288,0.4116 -0.0232,0.7695 -0.0948,1.0533l-0.0936,-1.9597z"></path>
  <path id="SvgjsPath1007" fill-opacity="0.87" fill="black" d="m21.7055,26.944157c-0.0184,0 -0.0369,-0.0023 -0.0552,-0.0068c-0.1231,-0.0298 -0.1991,-0.154 -0.168,-0.2759c0.0805,-0.325 0.1105,-0.6556 0.0874,-0.9828c-0.0196,-0.2839 -0.0794,-0.5689 -0.1761,-0.8471c-0.0415,-0.1185 0.0219,-0.2485 0.1427,-0.2895c0.1209,-0.0411 0.2509,0.0216 0.2923,0.1414c0.1105,0.3157 0.1773,0.6406 0.2003,0.9644c0.0265,0.3751 -0.0081,0.7524 -0.1001,1.1241c-0.0265,0.1026 -0.1209,0.1722 -0.2233,0.1722z"></path>
  <path id="SvgjsPath1006" fill="white" d="m23.1119,24.666257c0.141,0.2246 0.2636,0.4981 0.3018,0.8116c0.0462,0.3683 -0.037,0.6887 -0.1515,0.944l-0.1503,-1.7556z"></path>
  <path id="SvgjsPath1005" fill-opacity="0.87" fill="black" d="m23.2618,26.648757c-0.0311,0 -0.0622,-0.0068 -0.0933,-0.0194c-0.1163,-0.0513 -0.1692,-0.1858 -0.1174,-0.3009c0.122,-0.2736 0.1658,-0.5507 0.1323,-0.8243c-0.0299,-0.2394 -0.1196,-0.4811 -0.2681,-0.7194c-0.0667,-0.1071 -0.0334,-0.2474 0.0748,-0.3135c0.1082,-0.0661 0.2498,-0.033 0.3166,0.0741c0.1841,0.2941 0.2957,0.5986 0.3337,0.9041c0.0437,0.3557 -0.0127,0.7137 -0.1681,1.0636c-0.038,0.0856 -0.1219,0.1357 -0.2105,0.1357z"></path>
  <path id="SvgjsPath1004" fill="white" d="m8.493,24.756557c-0.0878,0.2508 -0.1641,0.5564 -0.1884,0.9064c-0.0289,0.4116 0.0231,0.7695 0.0947,1.0533l0.0937,-1.9597z"></path>
  <path id="SvgjsPath1003" fill-opacity="0.87" fill="black" d="m8.397,26.944257c-0.1034,0 -0.1967,-0.0697 -0.2232,-0.1733c-0.0921,-0.3705 -0.1266,-0.749 -0.1002,-1.1242c0.0219,-0.3248 0.0898,-0.6487 0.2003,-0.9644c0.0415,-0.1186 0.1727,-0.1825 0.2923,-0.1414c0.1198,0.041 0.1842,0.171 0.1428,0.2896c-0.0967,0.2781 -0.1566,0.562 -0.1761,0.847c-0.023,0.3272 0.0069,0.6579 0.0875,0.9828c0.0299,0.122 -0.0449,0.2462 -0.168,0.2759c-0.0185,0.0057 -0.0369,0.008 -0.0554,0.008z"></path>
  <path id="SvgjsPath1002" fill="white" d="m6.992,24.666257c-0.141,0.2246 -0.2635,0.4981 -0.3017,0.8116c-0.0462,0.3683 0.037,0.6887 0.1514,0.944l0.1503,-1.7556z"></path>
  <path id="SvgjsPath1001" fill-opacity="0.87" fill="black" d="m6.8408,26.648757c-0.0886,0 -0.1727,-0.0513 -0.2106,-0.1357c-0.1554,-0.3489 -0.213,-0.7068 -0.1681,-1.0636c0.038,-0.3055 0.1496,-0.6088 0.3338,-0.9041c0.0668,-0.1071 0.2083,-0.1402 0.3165,-0.0741c0.1082,0.0661 0.1416,0.2064 0.0748,0.3135c-0.1485,0.2372 -0.2382,0.48 -0.2682,0.7194c-0.0333,0.2736 0.0104,0.5507 0.1324,0.8243c0.0518,0.1151 -0.0011,0.2496 -0.1174,0.3009c-0.0311,0.0137 -0.0621,0.0194 -0.0932,0.0194z"></path>
  <path id="SvgjsPath1000" fill-opacity="0.87" fill="black" d="m17.3945,19.821357c-0.1658,0.4263 -0.5491,0.888 -1.0359,0.9577c-0.45,0.0626 -0.8644,-0.1757 -1.1624,-0.5462c-0.0288,0.0786 -0.0645,0.1596 -0.1105,0.2405c-0.0749,0.1324 -0.4765,0.7866 -1.1464,0.7866l-0.0184,0c-0.6376,-0.0113 -1.1911,-0.587 -1.2878,-1.3406c-0.015,-0.1254 0.0736,-0.2394 0.2001,-0.2543c0.1244,-0.0159 0.2418,0.073 0.2568,0.1973c0.0737,0.5814 0.4845,0.9359 0.8389,0.9417l0.0093,0c0.4224,0 0.7136,-0.4959 0.7458,-0.5529c0.1588,-0.2828 0.1553,-0.5724 0.1266,-0.7627c-0.0103,-0.0353 -0.0196,-0.0707 -0.0288,-0.106c-0.443,0.0513 -0.8252,-0.1026 -0.8954,-0.3832c-0.0794,-0.3191 0.2763,-0.6816 0.7953,-0.8093c0.5202,-0.1277 1.0059,0.0273 1.0853,0.3466c0.0668,0.2633 -0.1623,0.5551 -0.5352,0.7216c0.0115,0.0421 0.0219,0.0924 0.0311,0.147c0.1864,0.6134 0.663,0.9725 1.0312,0.9223c0.2855,-0.0411 0.5536,-0.3683 0.6699,-0.6692c0.099,-0.2554 0.0852,-0.4959 0.0564,-0.6521c-0.0218,-0.1242 0.061,-0.2428 0.1853,-0.2656c0.1266,-0.0217 0.2451,0.0604 0.2682,0.1835c0.0392,0.2144 0.0575,0.5427 -0.0794,0.8973z"></path>
 </g>
</svg><style>@media (prefers-color-scheme: light) { :root { filter: none; } }
</style></svg>